<svg width="28" height="13" viewBox="0 0 28 13" fill="none" xmlns="http://www.w3.org/2000/svg">
<path d="M27 6.86818C27.2033 6.86818 27.3682 6.70334 27.3682 6.5C27.3682 6.29666 27.2033 6.13182 27 6.13182V6.86818ZM0 6.86818H27V6.13182H0V6.86818Z" fill="#0A0A0A"/>
<path d="M15.2182 1.34548C15.4215 1.34548 15.5864 1.18064 15.5864 0.977295C15.5864 0.773954 15.4215 0.609113 15.2182 0.609113V1.34548ZM0 1.34548H15.2182V0.609113H0V1.34548Z" fill="#0A0A0A"/>
<path d="M26.9994 12.3909C27.2028 12.3909 27.3676 12.226 27.3676 12.0227C27.3676 11.8194 27.2028 11.6545 26.9994 11.6545V12.3909ZM11.7812 12.3909H26.9994V11.6545H11.7812V12.3909Z" fill="#0A0A0A"/>
</svg>
